<?xml version="1.0" encoding="UTF-8"?>
<svg id="Laag_2" data-name="Laag 2" xmlns="http://www.w3.org/2000/svg" viewBox="0 0 85 85">
  <defs>
    <style>
      .cls-1, .cls-2 {
        fill: #fff;
      }

      .cls-3 {
        fill: #a0b4f4;
      }

      .cls-2 {
        fill-rule: evenodd;
      }
    </style>
  </defs>
  <g id="Square_Grey" data-name="Square Grey">
    <g id="Github">
      <rect id="back" class="cls-3" width="85" height="85" rx="12" ry="12"/>
      <g id="Github-2" data-name="Github">
        <path class="cls-2" d="M42.5,19.29c-13.14,0-23.8,10.65-23.8,23.8,0,10.52,6.82,19.44,16.28,22.58,1.19,.22,1.63-.52,1.63-1.15,0-.57-.02-2.44-.03-4.43-6.62,1.44-8.02-2.81-8.02-2.81-1.08-2.75-2.64-3.48-2.64-3.48-2.16-1.48,.16-1.45,.16-1.45,2.39,.17,3.65,2.45,3.65,2.45,2.12,3.64,5.57,2.59,6.93,1.98,.21-1.54,.83-2.59,1.51-3.18-5.29-.6-10.84-2.64-10.84-11.76,0-2.6,.93-4.72,2.45-6.39-.25-.6-1.06-3.02,.23-6.3,0,0,2-.64,6.55,2.44,1.9-.53,3.94-.79,5.96-.8,2.02,0,4.06,.27,5.96,.8,4.54-3.08,6.54-2.44,6.54-2.44,1.3,3.28,.48,5.7,.23,6.3,1.53,1.67,2.45,3.79,2.45,6.39,0,9.14-5.57,11.15-10.87,11.74,.85,.74,1.61,2.19,1.61,4.41,0,3.18-.03,5.75-.03,6.53,0,.63,.43,1.38,1.63,1.14,9.45-3.15,16.26-12.07,16.26-22.58,0-13.15-10.66-23.8-23.8-23.8Z"/>
        <path class="cls-1" d="M27.71,53.46c-.05,.12-.24,.15-.41,.07-.17-.08-.27-.24-.21-.36,.05-.12,.24-.16,.41-.07,.17,.08,.27,.24,.21,.36h0Z"/>
        <path class="cls-1" d="M28.68,54.53c-.11,.11-.34,.06-.49-.11-.16-.17-.18-.39-.07-.49,.12-.11,.33-.06,.49,.11,.16,.17,.19,.39,.07,.49h0Z"/>
        <path class="cls-1" d="M29.62,55.91c-.15,.1-.38,0-.53-.21-.15-.21-.15-.47,0-.57,.15-.1,.38-.01,.53,.2,.15,.22,.15,.47,0,.57h0Z"/>
        <path class="cls-1" d="M30.9,57.23c-.13,.14-.41,.1-.61-.09-.21-.19-.27-.46-.14-.61,.13-.14,.41-.1,.62,.09,.21,.19,.27,.47,.13,.61h0Z"/>
        <path class="cls-1" d="M32.68,58c-.06,.19-.32,.27-.59,.19-.27-.08-.44-.3-.39-.49,.06-.19,.32-.28,.6-.19,.27,.08,.44,.3,.39,.49h0Z"/>
        <path class="cls-1" d="M34.62,58.14c0,.2-.22,.36-.51,.36-.28,0-.51-.15-.52-.35,0-.2,.22-.36,.51-.36,.28,0,.51,.15,.51,.35h0Z"/>
        <path class="cls-1" d="M36.44,57.83c.03,.19-.16,.39-.44,.44-.28,.05-.53-.07-.57-.26-.03-.2,.17-.39,.44-.44,.28-.05,.53,.07,.57,.26h0Z"/>
      </g>
    </g>
  </g>
</svg>