<?xml version="1.0" encoding="UTF-8"?>
<svg id="Laag_2" data-name="Laag 2" xmlns="http://www.w3.org/2000/svg" viewBox="0 0 85 85">
  <defs>
    <style>
      .cls-1 {
        fill: #fff;
      }

      .cls-2 {
        fill: #a0b4f4;
      }
    </style>
  </defs>
  <g id="Square_Grey" data-name="Square Grey">
    <g id="Instagram">
      <rect id="back" class="cls-2" width="85" height="85" rx="12" ry="12"/>
      <g>
        <path class="cls-1" d="M42.5,22.99c6.35,0,7.11,.02,9.62,.14,2.32,.11,3.58,.49,4.42,.82,1.11,.43,1.9,.95,2.74,1.78s1.35,1.63,1.78,2.74c.33,.84,.71,2.1,.82,4.42,.11,2.51,.14,3.26,.14,9.62s-.02,7.11-.14,9.62c-.11,2.32-.49,3.58-.82,4.42-.43,1.11-.95,1.9-1.78,2.74s-1.63,1.35-2.74,1.78c-.84,.33-2.1,.71-4.42,.82-2.51,.11-3.26,.14-9.62,.14s-7.11-.02-9.62-.14c-2.32-.11-3.58-.49-4.42-.82-1.11-.43-1.9-.95-2.74-1.78s-1.35-1.63-1.78-2.74c-.33-.84-.71-2.1-.82-4.42-.11-2.51-.14-3.26-.14-9.62s.02-7.11,.14-9.62c.11-2.32,.49-3.58,.82-4.42,.43-1.11,.95-1.9,1.78-2.74s1.63-1.35,2.74-1.78c.84-.33,2.1-.71,4.42-.82,2.51-.11,3.26-.14,9.62-.14m0-4.29c-6.46,0-7.27,.03-9.81,.14-2.53,.12-4.26,.52-5.78,1.11-1.57,.61-2.89,1.42-4.22,2.75s-2.14,2.65-2.75,4.22c-.59,1.51-.99,3.24-1.11,5.78-.12,2.54-.14,3.35-.14,9.81s.03,7.27,.14,9.81c.12,2.53,.52,4.26,1.11,5.78,.61,1.57,1.42,2.89,2.75,4.22s2.65,2.14,4.22,2.75c1.51,.59,3.24,.99,5.78,1.11,2.54,.12,3.35,.14,9.81,.14s7.27-.03,9.81-.14c2.53-.12,4.26-.52,5.78-1.11,1.57-.61,2.89-1.42,4.22-2.75s2.14-2.65,2.75-4.22c.59-1.51,.99-3.24,1.11-5.78,.12-2.54,.14-3.35,.14-9.81s-.03-7.27-.14-9.81c-.12-2.53-.52-4.26-1.11-5.78-.61-1.57-1.42-2.89-2.75-4.22s-2.65-2.14-4.22-2.75c-1.51-.59-3.24-.99-5.78-1.11-2.54-.12-3.35-.14-9.81-.14h0Z"/>
        <path class="cls-1" d="M42.5,30.28c-6.75,0-12.22,5.47-12.22,12.22s5.47,12.22,12.22,12.22,12.22-5.47,12.22-12.22-5.47-12.22-12.22-12.22Zm0,20.15c-4.38,0-7.93-3.55-7.93-7.93s3.55-7.93,7.93-7.93,7.93,3.55,7.93,7.93-3.55,7.93-7.93,7.93Z"/>
        <circle class="cls-1" cx="55.2" cy="29.8" r="2.86"/>
      </g>
    </g>
  </g>
</svg>